<svg width="513" height="422" viewBox="0 0 513 422" fill="none" xmlns="http://www.w3.org/2000/svg">
<path d="M66.4836 9.90231C191.817 9.90231 317.151 9.90231 446.282 9.90231C446.282 -24.0313 446.282 42.8379 446.282 9.90231C457.166 9.90231 468.051 9.90231 479.265 9.90231C481.776 16.1711 484.202 22.3713 486.377 28.749C486.66 29.5733 486.944 30.3976 487.236 31.2469C490.167 39.7924 493.059 48.3513 495.948 56.9111C497.314 60.9562 498.693 64.9967 500.083 69.0339C501.774 73.9439 503.441 78.8612 505.093 83.7841C505.722 85.6436 506.358 87.5004 507.002 89.3545C513.447 107.946 514.34 122.569 505.626 140.709C502.128 147.654 497.927 153.237 492.258 158.611C491.541 159.3 490.825 159.988 490.087 160.697C486.413 164.069 484.056 165.68 479.265 167.594C479.265 251.25 479.265 334.906 479.265 421.098C332.163 421.098 185.061 421.098 33.5011 421.098C33.5011 337.441 33.5011 253.785 33.5011 167.594C31.8519 166.935 30.2028 166.276 28.5037 165.598C24.9467 162.845 21.7422 159.737 18.509 156.615C17.8751 156.02 17.2413 155.424 16.5882 154.81C6.25638 144.185 0.158428 127.942 0 113.318C0.272481 103.233 4.2172 93.7595 7.47971 84.327C8.19627 82.2032 8.91091 80.0789 9.62373 77.9539C11.4912 72.405 13.386 66.8658 15.2864 61.328C16.8406 56.7844 18.3754 52.2344 19.9093 47.6838C23.0704 38.3063 26.2437 28.9329 29.4522 19.5714C29.7477 18.7026 30.0431 17.8338 30.3476 16.9386C32.386 11.0158 32.386 11.0158 33.5011 9.90231C44.3853 9.90231 55.2695 9.90231 66.4836 9.90231C66.4836 43.8359 66.4836 -23.0332 66.4836 9.90231Z" fill="#354A67"/>
<path d="M66.4674 9C191.806 9 317.144 9 446.28 9C446.28 29.7148 446.28 50.4296 446.28 71.7721C457.164 71.7721 468.049 71.7721 479.264 71.7721C481.775 75.7148 484.201 79.6145 486.376 83.6257C486.66 84.1442 486.943 84.6626 487.235 85.1968C490.166 90.5715 493.058 95.9546 495.947 101.338C497.314 103.882 498.693 106.424 500.083 108.963C501.773 112.051 503.441 115.144 505.093 118.24C505.721 119.41 506.357 120.577 507.001 121.744C513.447 133.436 514.34 142.634 505.625 154.043C502.125 158.415 497.917 161.912 492.257 165.303C491.304 165.908 491.304 165.908 490.332 166.526C476.691 174.703 457.299 176.952 439.119 176.776C432.728 176.618 427.174 175.645 421.292 174.091C420.278 173.824 419.264 173.558 418.219 173.284C402.064 168.62 390.036 160.556 383.311 150.237C383.311 149.823 383.311 149.409 383.311 148.982C382.651 148.982 381.992 148.982 381.312 148.982C381.229 149.396 381.147 149.81 381.062 150.237C377.685 158.721 366.364 165.929 354.95 170.481C339.681 176.109 322.284 178.263 304.729 176.17C286.766 172.92 270.572 166.132 261.257 155.768C257.373 151.269 257.373 151.269 257.373 148.982C256.713 148.982 256.054 148.982 255.374 148.982C255.22 149.648 255.22 149.648 255.062 150.328C251.395 159.893 237.644 166.892 225.065 171.872C210.812 176.871 191.827 178.36 176.07 175.697C157.863 172.198 142.626 164.485 133.434 154.004C132.341 152.554 131.377 151.102 130.436 149.61C130.035 150.119 129.634 150.627 129.222 151.152C119.426 163.135 105.619 170.988 85.3331 175.582C66.747 178.919 47.0413 176.033 30.4852 170.324C27.5729 169.203 25.0297 167.989 22.4892 166.558C21.7651 166.168 21.041 165.778 20.2949 165.376C8.35933 158.49 0.735603 148.222 0.0024765 138.053C-0.114821 131.222 3.95703 124.954 7.46144 118.581C8.17802 117.246 8.89269 115.91 9.60554 114.573C11.4731 111.083 13.3679 107.599 15.2684 104.116C16.8227 101.259 18.3576 98.3969 19.8915 95.5348C23.0527 89.6368 26.2261 83.7414 29.4347 77.8535C29.7302 77.307 30.0257 76.7606 30.3301 76.1976C32.3686 72.4725 32.3686 72.4725 33.4837 71.7721C44.3684 71.7721 55.253 71.7721 66.4674 71.7721C66.4674 51.0573 66.4674 30.3425 66.4674 9Z" fill="#1A9588"/>
<path d="M67.5188 209C129.889 209 192.259 209 256.519 209C256.519 268.07 256.519 327.14 256.519 388C194.149 388 131.779 388 67.5188 388C67.5188 328.93 67.5188 269.86 67.5188 209Z" fill="#80E7E7"/>
<path d="M289.519 209C340.999 209 392.479 209 445.519 209C445.519 278.96 445.519 348.92 445.519 421C394.039 421 342.559 421 289.519 421C289.519 351.04 289.519 281.08 289.519 209Z" fill="#1F3A60"/>
<path d="M39.4845 8.87091C40.7816 8.87528 40.7816 8.87528 42.105 8.87974C43.0165 8.87888 43.928 8.87803 44.8671 8.87715C47.9457 8.87549 51.0244 8.88102 54.103 8.88647C56.3002 8.88675 58.4974 8.88659 60.6945 8.88602C66.6798 8.88574 72.6651 8.89163 78.6504 8.8986C84.8978 8.90483 91.1452 8.90544 97.3926 8.90662C107.885 8.90938 118.378 8.91564 128.87 8.92455C139.679 8.93373 150.489 8.9408 161.298 8.94506C162.307 8.94546 162.307 8.94546 163.336 8.94587C169.187 8.94819 175.037 8.95034 180.888 8.95248C206.098 8.96189 231.309 8.98181 256.519 8.99999C256.519 42 256.519 75 256.519 109C172.039 109 87.5588 109 0.518799 109C2.76886 98.8747 2.76886 98.8747 3.89149 95.5077C4.27209 94.3554 4.27209 94.3554 4.66037 93.1798C4.93213 92.3722 5.20389 91.5645 5.48389 90.7324C5.92083 89.4161 5.92083 89.4161 6.36659 88.0732C7.32047 85.2036 8.28078 82.3361 9.24146 79.4687C9.90912 77.4663 10.5765 75.4637 11.2435 73.4611C12.6369 69.281 14.0333 65.102 15.4321 60.9238C17.2285 55.5574 19.0182 50.1888 20.8057 44.8194C22.1803 40.6925 23.5578 36.5665 24.9363 32.4408C25.5978 30.4602 26.2585 28.4794 26.9183 26.4983C27.837 23.742 28.7595 20.987 29.6831 18.2324C29.9569 17.4086 30.2307 16.5848 30.5128 15.736C32.8171 8.88796 32.8171 8.88796 39.4845 8.87091Z" fill="#1A9588"/>
<path d="M129.519 132C132.095 134.295 133.358 136.494 134.769 139.625C137.39 145.016 140.615 149.468 144.519 154C145.285 154.909 145.285 154.909 146.066 155.836C155.897 166.592 171.992 174.536 186.64 175.336C208.221 175.789 225.599 169.816 241.636 155.051C248.111 148.437 251.687 140.305 255.519 132C256.509 132.495 256.509 132.495 257.519 133C257.189 158.08 256.859 183.16 256.519 209C194.149 209 131.779 209 67.5188 209C67.5188 268.07 67.5188 327.14 67.5188 388C129.889 388 192.259 388 256.519 388C256.519 398.89 256.519 409.78 256.519 421C182.929 421 109.339 421 33.5188 421C33.5188 337.18 33.5188 253.36 33.5188 167C37.4788 168.65 41.4388 170.3 45.5188 172C61.9104 176.911 77.796 176.662 93.5188 170C94.4315 169.627 95.3441 169.255 96.2844 168.871C112.777 161.429 122.215 147.841 129.519 132Z" fill="#354A67"/>
<path d="M67.5188 210C129.559 210 191.599 210 255.519 210C251.821 214.314 248.804 217.83 244.644 221.438C241.457 224.247 238.372 227.094 235.394 230.125C232.876 232.683 230.305 235.1 227.581 237.438C224.591 240.007 221.788 242.693 219.019 245.5C215.658 248.907 212.182 252.075 208.55 255.188C206.282 257.211 204.153 259.337 202.019 261.5C198.658 264.907 195.182 268.075 191.55 271.188C189.282 273.211 187.153 275.337 185.019 277.5C181.658 280.907 178.182 284.075 174.55 287.188C172.282 289.211 170.153 291.337 168.019 293.5C164.658 296.907 161.182 300.075 157.55 303.188C155.282 305.211 153.153 307.337 151.019 309.5C147.658 312.907 144.182 316.075 140.55 319.188C138.282 321.211 136.153 323.337 134.019 325.5C130.658 328.907 127.182 332.075 123.55 335.188C121.282 337.211 119.153 339.337 117.019 341.5C113.658 344.907 110.182 348.075 106.55 351.188C104.282 353.211 102.153 355.337 100.019 357.5C96.6577 360.907 93.1818 364.075 89.55 367.188C87.2824 369.211 85.153 371.337 83.0188 373.5C78.1791 378.398 73.2607 383.172 67.5188 387C67.5188 328.59 67.5188 270.18 67.5188 210Z" fill="#E0F9F7"/>
<path d="M323.519 243C352.889 243 382.259 243 412.519 243C412.519 290.85 412.519 338.7 412.519 388C383.149 388 353.779 388 323.519 388C323.519 340.15 323.519 292.3 323.519 243Z" fill="#20B2AA"/>
<path d="M367.519 9C404.479 9 441.439 9 479.519 9C482.058 15.3474 484.485 21.604 486.635 28.074C486.918 28.9192 487.202 29.7644 487.494 30.6352C488.417 33.3899 489.335 36.146 490.253 38.9023C490.898 40.8315 491.542 42.7606 492.187 44.6896C493.53 48.7124 494.871 52.7359 496.211 56.76C497.93 61.9223 499.655 67.0822 501.383 72.2416C502.712 76.215 504.037 80.1897 505.361 84.1649C505.996 86.0692 506.633 87.9731 507.27 89.8764C508.158 92.5268 509.04 95.179 509.92 97.8318C510.185 98.6188 510.45 99.4058 510.723 100.217C511.727 103.259 512.519 105.774 512.519 109C469.619 109 426.719 109 382.519 109C380.271 98.886 380.271 98.886 379.738 94.293C379.56 92.804 379.56 92.804 379.378 91.2849C379.259 90.2628 379.141 89.2406 379.019 88.1875C378.157 81.018 377.247 73.8889 375.984 66.7773C375.412 63.3609 374.965 59.9351 374.519 56.5C373.931 51.9826 373.291 47.4895 372.519 43C371.556 37.3939 370.8 31.7711 370.081 26.1289C369.302 20.4086 368.397 14.706 367.519 9Z" fill="#0E5955"/>
<path d="M144.519 9C181.479 9 218.439 9 256.519 9C256.519 42 256.519 75 256.519 109C214.939 109 173.359 109 130.519 109C133.802 79.4522 133.802 79.4522 136.054 66.7773C136.626 63.3609 137.073 59.9351 137.519 56.5C138.106 51.9826 138.746 47.4895 139.519 43C140.482 37.3939 141.237 31.7711 141.956 26.1289C142.736 20.4086 143.641 14.706 144.519 9Z" fill="#0E5955"/>
<path d="M382.519 109C425.419 109 468.319 109 512.519 109C512.519 126.943 507.51 142.893 494.726 155.895C493.998 156.589 493.269 157.284 492.519 158C491.883 158.643 491.248 159.286 490.593 159.949C476.945 172.976 457.543 176.559 439.355 176.277C432.961 176.027 427.404 174.476 421.519 172C420.504 171.576 419.49 171.152 418.445 170.715C406.426 165.19 397.079 156.795 389.519 146C388.473 144.513 388.473 144.513 387.406 142.996C380.233 131.051 382.519 124.786 382.519 109Z" fill="#147766"/>
<path d="M0.518799 109C43.4188 109 86.3188 109 130.519 109C130.519 136.05 130.519 136.05 123.519 146C122.488 147.471 122.488 147.471 121.437 148.973C110.81 162.893 95.8094 172.688 78.5188 176C60.0179 177.873 41.419 173.984 26.1438 163.125C24.9143 162.108 23.7064 161.065 22.5188 160C21.7943 159.379 21.0699 158.757 20.3235 158.117C9.74876 148.403 3.31276 134.97 0.518799 121C0.518799 117.04 0.518799 113.08 0.518799 109Z" fill="#20B2AA"/>
<path d="M130.519 109C172.099 109 213.679 109 256.519 109C256.519 130.124 255.378 141.753 241.731 156.042C237.384 160.341 232.761 163.875 227.519 167C226.776 167.459 226.034 167.918 225.269 168.391C210.977 176.406 191.999 178.817 176.176 174.559C158.1 169.028 142.51 156.727 133.519 140C130.519 133 130.519 133 130.519 109Z" fill="#147766"/>
<path d="M256.519 109C298.099 109 339.679 109 382.519 109C382.519 131.709 380.712 142.302 366.331 157.688C351.985 171.49 334.639 176.407 315.237 176.371C297.078 175.915 281.315 166.155 268.894 153.5C256.898 139.365 256.519 128.925 256.519 109Z" fill="#20B2AA"/>
</svg>
